<svg width="30" height="22" viewBox="0 0 30 22" fill="none" xmlns="http://www.w3.org/2000/svg">
<rect opacity="0.5" x="7" y="2" width="3" height="23.3475" rx="1.5" transform="rotate(-33.8382 7 2)" fill="#104651"/>
<g opacity="0.5">
<path d="M29.7696 9.93548C29.4933 9.56707 23.1371 1 15 1C6.86288 1 0.506717 9.567 0.230362 9.93548C-0.0767872 10.3654 -0.0767872 10.9488 0.230362 11.3787C0.506667 11.7473 6.86288 20.3448 15 20.3448C23.1371 20.3448 29.4933 11.7778 29.7696 11.4094C30.0768 10.9797 30.0768 10.3654 29.7696 9.93553V9.93548ZM15 17.8884C9.38078 17.8884 4.4371 12.6375 2.77897 10.6724C4.43699 8.70723 9.35008 3.45649 15 3.45649C20.6499 3.45649 25.5629 8.70734 27.221 10.6724C25.563 12.6376 20.6192 17.8884 15 17.8884Z" fill="#104651"/>
<path d="M14.9998 4.10132C11.3766 4.10132 8.42871 7.04921 8.42871 10.6724C8.42871 14.2956 11.3766 17.2435 14.9998 17.2435C18.623 17.2435 21.5709 14.2956 21.5709 10.6724C21.5709 7.04921 18.623 4.10132 14.9998 4.10132Z" fill="#104651"/>
</g>
</svg>
