<svg width="28" height="19" viewBox="0 0 28 19" fill="none" xmlns="http://www.w3.org/2000/svg">
<g opacity="0.48">
<path d="M5.2917 1.70976L7.92856 4.34556C5.76019 5.41038 3.6111 7.05489 1.49805 9.27779L1.51581 9.29497L1.49805 9.31216C5.47564 13.4957 9.58167 15.6457 13.7011 15.701C13.7559 15.7018 13.8098 15.7022 13.8645 15.7022C15.3782 15.7022 16.9043 15.4141 18.4382 14.852L21.4874 17.8998L22.1978 17.1896L6.00236 1L5.2917 1.70976ZM13.8637 14.697C13.8141 14.697 13.7641 14.6968 13.7145 14.6958C10.0993 14.6472 6.46135 12.8303 2.88967 9.29487C4.80627 7.39843 6.74215 5.9983 8.68346 5.09967L10.5815 6.9971C10.1297 7.64864 9.86026 8.43429 9.86026 9.28578C9.86026 11.5169 11.676 13.3317 13.9076 13.3317C14.7592 13.3317 15.5453 13.0619 16.197 12.6107L17.6464 14.0597C16.3748 14.4797 15.1127 14.6969 13.8641 14.6969L13.8637 14.697ZM15.4746 11.8892C15.0168 12.1664 14.4807 12.327 13.9072 12.327C12.2295 12.327 10.8648 10.9626 10.8648 9.28587C10.8648 8.71251 11.0253 8.17667 11.303 7.71895L15.4746 11.8892Z" fill="#3D144C" stroke="#3D144C"/>
<path d="M17.6594 10.7969C17.8488 10.3296 17.955 9.82051 17.955 9.28619C17.955 7.05504 16.1393 5.24023 13.9077 5.24023C13.3734 5.24023 12.8638 5.34679 12.3965 5.53559L13.194 6.33286C13.4234 6.27727 13.6615 6.24484 13.9079 6.24484C15.5856 6.24484 16.9503 7.60924 16.9503 9.28621C16.9503 9.53254 16.9177 9.77056 16.8622 9.99972L17.6594 10.7969Z" fill="#3D144C" stroke="#3D144C"/>
<path d="M26.5537 9.26798C22.2506 4.97799 17.9318 2.83959 13.7011 2.88852C12.5595 2.90377 11.4188 3.08619 10.282 3.42189L11.1006 4.24022C11.9723 4.0244 12.8443 3.90471 13.7147 3.89294C13.7643 3.89274 13.8137 3.89216 13.8639 3.89216C17.5349 3.89216 21.3227 5.70929 25.1361 9.29462C23.3993 10.9272 21.6675 12.1916 19.9499 13.0858L20.6916 13.8275C22.643 12.7688 24.601 11.2689 26.5546 9.32125L26.528 9.29462L26.5537 9.26798Z" fill="#3D144C" stroke="#3D144C"/>
</g>
</svg>
