<?xml version="1.0" standalone="no"?>
<!DOCTYPE svg PUBLIC "-//W3C//DTD SVG 20010904//EN"
 "http://www.w3.org/TR/2001/REC-SVG-20010904/DTD/svg10.dtd">
<svg version="1.0" xmlns="http://www.w3.org/2000/svg"
 width="500.000000pt" height="500.000000pt" viewBox="0 0 500.000000 500.000000"
 preserveAspectRatio="xMidYMid meet">
<metadata>
Created by potrace 1.14, written by Peter Selinger 2001-2017
</metadata>
<g transform="translate(0.000000,500.000000) scale(0.100000,-0.100000)"
fill="#000000" stroke="none">
<path d="M1690 4159 c0 -3 -19 -5 -42 -6 -49 0 -132 -9 -168 -17 -14 -3 -41
-8 -60 -10 -19 -3 -66 -12 -105 -20 -38 -9 -80 -19 -92 -21 -12 -3 -35 -11
-50 -17 -16 -7 -32 -13 -38 -13 -10 -2 -20 -6 -120 -48 -83 -35 -221 -114
-253 -144 -7 -7 -17 -13 -21 -13 -4 0 -16 -8 -27 -17 -10 -10 -36 -31 -57 -46
-51 -38 -182 -171 -218 -220 -16 -22 -29 -36 -30 -31 0 5 -3 2 -7 -6 -4 -8
-32 -53 -63 -100 -52 -79 -104 -174 -134 -245 -7 -16 -18 -41 -23 -55 -26 -61
-70 -216 -77 -274 -3 -17 -8 -51 -13 -76 -5 -25 -8 -62 -7 -82 0 -21 -2 -38
-5 -38 -14 0 4 -305 24 -390 3 -14 8 -36 10 -50 19 -102 77 -261 143 -390 38
-73 106 -184 123 -200 3 -3 21 -25 40 -50 19 -25 57 -69 85 -98 27 -29 51 -58
53 -63 2 -5 8 -9 13 -9 5 0 22 -13 37 -30 16 -16 32 -30 36 -30 4 0 17 -10 29
-23 12 -13 58 -47 102 -75 44 -29 85 -55 90 -60 12 -8 160 -80 193 -93 12 -5
32 -13 45 -18 36 -15 60 -22 87 -27 13 -3 30 -10 37 -16 8 -6 16 -8 19 -6 3 3
26 -1 52 -8 26 -8 61 -17 77 -19 17 -2 41 -8 55 -12 40 -11 1810 -16 1810 -4
0 5 21 10 48 9 70 -1 84 1 77 11 -7 13 16 26 24 14 5 -9 37 -20 78 -29 40 -8
82 -27 78 -35 -4 -5 -38 -8 -78 -8 -106 1 -110 1 -104 -14 3 -8 1 -20 -3 -28
-13 -20 6 -28 51 -22 34 5 39 3 39 -15 0 -16 5 -20 23 -16 12 3 36 8 52 10 25
5 217 45 277 59 60 13 144 39 152 46 6 5 16 9 24 9 35 0 132 60 132 82 0 4
-16 8 -35 8 -24 0 -35 5 -35 14 0 19 7 23 55 30 22 3 51 8 65 11 14 2 43 7 64
10 35 5 183 95 211 129 6 7 17 17 26 22 28 15 129 105 206 182 66 67 213 251
213 267 0 4 8 19 19 33 28 41 90 188 97 232 7 40 -10 100 -27 100 -5 0 -9 7
-9 15 0 9 -7 18 -15 21 -8 4 -15 11 -15 16 0 29 -161 211 -304 343 -27 26
-156 125 -161 125 -3 0 -11 5 -18 10 -25 21 -88 60 -97 60 -6 0 -10 5 -10 10
0 6 -4 10 -10 10 -5 0 -53 21 -107 48 -88 42 -172 77 -213 87 -87 23 -105 33
-108 60 -2 17 0 25 7 20 6 -3 11 1 11 11 0 10 3 15 6 12 3 -4 13 1 23 10 33
32 114 97 145 117 17 10 33 22 36 25 20 26 272 160 299 160 6 0 11 5 11 10 0
6 3 9 8 8 4 -1 52 13 107 30 55 18 123 36 150 42 28 5 61 12 75 15 24 5 166
18 203 19 14 0 17 7 15 33 -2 19 -7 34 -13 34 -5 1 -19 6 -29 11 -19 10 -19
11 -2 24 10 7 24 10 32 7 11 -4 14 5 14 36 0 23 -3 41 -7 42 -5 1 -21 2 -36 3
-15 2 -33 8 -39 14 -13 13 -7 14 55 14 l28 1 -3 96 -3 96 -45 23 c-25 12 -70
29 -100 38 -30 8 -64 19 -75 24 -11 5 -36 12 -55 14 -19 3 -48 9 -65 12 -16 3
-47 6 -67 7 -21 0 -38 4 -38 8 0 4 52 8 116 8 63 0 119 3 124 6 17 11 -1 32
-28 32 -52 1 -63 3 -57 13 3 6 -4 10 -17 11 -13 0 -75 2 -138 4 -194 6 -293
15 -345 32 -11 4 -24 7 -30 8 -37 5 -75 19 -75 27 0 5 -42 -24 -92 -65 -148
-117 -432 -340 -469 -367 -18 -14 -43 -35 -55 -46 -13 -12 -27 -18 -34 -14 -8
5 -9 10 -2 14 6 3 8 15 5 25 -4 17 -18 10 -99 -52 -89 -68 -101 -83 -149 -177
-5 -11 -13 -20 -17 -20 -5 0 -8 -8 -8 -17 0 -11 -10 0 -24 24 -13 23 -38 62
-55 86 -17 25 -31 51 -31 57 0 6 -4 8 -10 5 -5 -3 -10 1 -10 9 0 8 -6 19 -13
23 -7 4 -20 19 -29 33 -21 34 -152 166 -210 213 -26 21 -53 43 -61 50 -7 7
-22 18 -32 25 -11 7 -33 21 -50 32 -16 10 -34 23 -40 27 -14 12 -249 129 -252
125 -2 -1 -16 4 -32 12 -16 9 -31 12 -35 9 -3 -4 -6 -2 -6 4 0 5 -6 10 -12 10
-7 0 -47 9 -88 20 -41 12 -93 24 -115 28 -22 4 -49 9 -61 11 -67 12 -324 23
-324 13z m111 -305 c120 -46 215 -158 246 -289 19 -83 -8 -225 -58 -297 -19
-28 -78 -88 -114 -116 -21 -17 -97 -42 -126 -42 -38 0 -149 37 -171 57 -10 9
-18 13 -18 9 0 -7 -77 71 -109 109 -7 9 -24 47 -37 83 -68 193 18 403 201 494
38 19 126 15 186 -8z m2732 -320 c-3 -8 -10 -15 -17 -16 -6 0 -15 -2 -21 -3
-5 -2 -13 -3 -17 -4 -5 0 -11 -2 -15 -2 -5 -1 -19 -6 -33 -11 -41 -16 -70 -19
-70 -8 0 6 4 9 9 6 4 -3 17 1 27 9 10 8 26 15 34 15 8 1 31 9 50 19 38 19 62
17 53 -5z m-3675 -300 c19 -2 63 -17 98 -34 194 -97 273 -328 179 -525 -53
-114 -184 -209 -276 -201 -66 6 -186 57 -196 83 -3 7 -11 13 -19 13 -8 0 -14
3 -14 8 0 4 -14 21 -30 39 -17 18 -30 37 -30 42 0 6 -4 11 -8 11 -16 0 -46
116 -48 188 -3 84 19 162 64 226 31 46 72 92 72 82 0 -4 10 4 23 17 12 14 25
25 29 26 4 1 22 8 40 15 51 21 62 24 71 18 5 -2 25 -6 45 -8z m1750 0 c82 -13
185 -72 233 -134 30 -40 71 -110 63 -110 -4 0 0 -7 7 -16 16 -19 20 -207 5
-239 -5 -11 -10 -26 -12 -33 -5 -28 -55 -101 -95 -139 -54 -53 -123 -87 -181
-89 -71 -2 -176 46 -245 112 -30 30 -52 54 -48 54 5 0 2 8 -6 18 -38 45 -67
149 -62 224 3 60 38 171 59 188 8 7 14 18 14 25 0 28 142 134 186 139 13 2 27
6 30 9 4 4 11 4 16 1 4 -3 21 -7 36 -10z m-853 -584 c24 -25 30 -40 32 -84 1
-44 -3 -57 -23 -79 -31 -34 -37 -34 -73 2 -28 28 -45 78 -38 111 8 34 26 68
39 73 25 10 34 7 63 -23z m1783 -129 c9 -5 28 -13 42 -18 14 -6 36 -15 50 -21
54 -25 89 -37 125 -46 11 -2 32 -9 48 -15 15 -6 27 -8 27 -6 0 3 0 8 -1 11 -6
44 143 -7 444 -152 42 -21 45 -34 21 -113 -22 -77 -50 -125 -107 -187 -46 -51
-164 -144 -182 -144 -5 0 -16 -6 -24 -13 -9 -7 -45 -26 -81 -41 -36 -15 -74
-31 -85 -36 -33 -15 -178 -59 -217 -66 -21 -3 -38 -10 -38 -16 0 -5 -4 -6 -10
-3 -5 3 -16 3 -22 -1 -7 -5 -26 -9 -43 -10 -16 -1 -61 -9 -100 -17 -127 -28
-147 -28 -181 -2 -19 15 -35 20 -45 15 -9 -5 -26 0 -46 14 l-33 23 25 33 c14
19 25 40 25 47 0 7 4 13 8 13 11 0 135 259 137 285 0 6 6 24 12 40 31 77 71
285 74 382 1 30 3 32 23 21 11 -6 24 -16 28 -22 5 -7 8 -4 8 7 0 24 16 21 48
-8 36 -34 42 -32 42 15 0 43 1 45 28 31z m-2318 -324 c8 -1 40 -14 70 -28 73
-34 146 -109 184 -189 28 -59 31 -74 31 -165 0 -93 -2 -105 -32 -165 -18 -36
-46 -79 -61 -97 -35 -39 -131 -105 -142 -98 -5 3 -11 1 -15 -5 -18 -29 -153 4
-233 57 -167 111 -222 328 -130 511 30 60 113 141 172 168 48 22 90 25 156 11z
m1086 0 c88 -21 203 -114 244 -197 80 -159 52 -338 -72 -463 -101 -102 -198
-119 -321 -59 -149 75 -230 211 -223 375 4 74 24 139 59 192 29 44 100 115
115 115 6 0 12 4 12 9 0 5 10 12 23 16 12 5 31 11 42 16 20 7 81 5 121 -4z
m665 -694 c0 -10 3 -27 5 -38 3 -11 6 -29 8 -40 5 -34 43 -100 76 -132 25 -24
28 -31 14 -29 -11 2 -25 -1 -31 -7 -7 -5 -13 -6 -13 -1 0 10 -126 11 -136 1
-3 -3 -13 -3 -22 1 -21 8 -65 7 -79 -1 -7 -4 -14 -3 -17 1 -3 5 -28 7 -56 6
-27 -2 -50 -1 -50 4 1 4 30 27 65 52 36 25 65 48 65 53 0 4 4 7 10 7 5 0 40
31 77 70 38 38 71 69 76 70 4 0 7 -8 8 -17z m912 -450 c-7 -2 -19 -2 -25 0 -7
3 -2 5 12 5 14 0 19 -2 13 -5z m121 -8 c-4 -8 -18 -15 -33 -15 l-26 1 30 14
c17 7 31 14 32 14 1 1 0 -6 -3 -14z m-222 -7 c-10 -10 -91 -18 -96 -9 -3 4 9
8 27 9 17 2 33 4 35 7 2 2 12 3 23 2 10 -1 15 -5 11 -9z m51 5 c-7 -2 -19 -2
-25 0 -7 3 -2 5 12 5 14 0 19 -2 13 -5z"/>
</g>
</svg>
