<svg width="24" height="26" viewBox="0 0 24 26" fill="none" xmlns="http://www.w3.org/2000/svg">
<path d="M2.79846 17.4314V17.3594C3.5126 17.1462 4.03469 16.483 4.03469 15.6987V9.80955C4.03469 5.34231 7.65426 1.72461 12.1196 1.72461C16.586 1.72461 20.2046 5.34424 20.2046 9.80955V15.6987C20.2046 16.4865 20.7258 17.1475 21.4405 17.3598V17.4314C22.389 17.4314 23.1492 18.1946 23.1492 19.1348V19.6271C23.1492 19.7557 23.0483 19.858 22.9169 19.858H1.32212C1.19263 19.858 1.08984 19.7538 1.08984 19.6271V19.1348C1.08984 18.196 1.85345 17.4314 2.79846 17.4314ZM14.6987 22.3397C14.3741 23.4579 13.342 24.2754 12.1191 24.2754C10.8962 24.2754 9.86414 23.4579 9.53953 22.3397H14.6987Z" stroke="#3D144C" stroke-width="1.5"/>
</svg>
