<svg width="20" height="20" viewBox="0 0 20 20" fill="none" xmlns="http://www.w3.org/2000/svg">
<path d="M8.65019 0.174825C5.97715 0.175967 3.46629 1.45663 1.89611 3.61953C0.325751 5.78266 -0.114443 8.56652 0.712082 11.1081C1.53884 13.6501 3.53202 15.6428 6.07435 16.4686C8.6165 17.2942 11.4003 16.8531 13.563 15.2821L17.7223 19.4414C18.0533 19.7724 18.536 19.9017 18.9883 19.7806C19.4406 19.6593 19.7938 19.3061 19.9151 18.8538C20.0362 18.4015 19.9069 17.9188 19.5759 17.5878L15.4166 13.4285C16.6314 11.7587 17.1838 9.69796 16.9675 7.64448C16.7509 5.591 15.781 3.69081 14.2446 2.31098C12.7086 0.93116 10.7148 0.170263 8.65019 0.174825ZM8.65019 14.2573C7.13013 14.2573 5.67241 13.6535 4.59757 12.5787C3.52273 11.5038 2.91896 10.0461 2.91896 8.52605C2.91896 7.00599 3.52273 5.54826 4.59757 4.47342C5.67241 3.39858 7.13013 2.79482 8.65019 2.79482C10.1703 2.79482 11.628 3.39858 12.7028 4.47342C13.7777 5.54826 14.3814 7.00599 14.3814 8.52605C14.3796 10.0454 13.7754 11.5023 12.7008 12.5766C11.6264 13.6512 10.1696 14.2555 8.65019 14.2573Z" fill="#9C81A0"/>
</svg>
